<svg width="14" height="14" viewBox="0 0 14 14" fill="none" xmlns="http://www.w3.org/2000/svg">
<path d="M9.76074 0.100586V0.103516C11.7063 0.156565 13.2725 1.7543 13.2725 3.71289V9.66309C13.2725 11.6549 11.6525 13.2754 9.66113 13.2754H3.71191C1.7204 13.2754 0.100586 11.655 0.100586 9.66309V3.71289C0.100586 1.72092 1.7204 0.100586 3.71191 0.100586H9.76074ZM3.71191 1.06055C2.25024 1.06055 1.06055 2.25078 1.06055 3.71289V9.66309C1.06055 11.1251 2.25024 12.3154 3.71191 12.3154H9.66113C11.1227 12.3154 12.3115 11.1251 12.3115 9.66309V3.71289C12.3115 2.25078 11.1227 1.06056 9.66113 1.06055H3.71191Z" fill="white" stroke="white" stroke-width="0.2"/>
<path d="M6.68652 3.04004C8.6976 3.04004 10.3339 4.67597 10.334 6.6875C10.334 8.69907 8.69763 10.3359 6.68652 10.3359C4.67547 10.3359 3.04004 8.69903 3.04004 6.6875C3.04008 4.67601 4.6755 3.04011 6.68652 3.04004ZM6.68652 4C5.20544 4.00007 4.00004 5.20596 4 6.6875C4 8.16917 5.20542 9.37493 6.68652 9.375C8.16778 9.375 9.37305 8.16921 9.37305 6.6875C9.373 5.20592 8.16776 4 6.68652 4Z" fill="white" stroke="white" stroke-width="0.2"/>
<path d="M10.3186 1.87988C9.74062 1.87988 9.27051 2.35009 9.27051 2.92798C9.27051 3.50597 9.74062 3.97617 10.3186 3.97617C10.8966 3.97617 11.3668 3.50597 11.3668 2.92798C11.3668 2.34999 10.8966 1.87988 10.3186 1.87988ZM10.3186 3.21559C10.1601 3.21559 10.031 3.08653 10.031 2.92798C10.031 2.76933 10.1601 2.64037 10.3186 2.64037C10.4773 2.64037 10.6063 2.76933 10.6063 2.92798C10.6063 3.08653 10.4773 3.21559 10.3186 3.21559Z" fill="white"/>
</svg>
